<?xml version="1.0" encoding="UTF-8"?>
<svg id="Layer_2" data-name="Layer 2" xmlns="http://www.w3.org/2000/svg" viewBox="0 0 160.92 233.73">
  <defs>
    <style>
      .cls-1 {
        fill: #19171b;
        stroke: #000;
        stroke-miterlimit: 10;
      }
    </style>
  </defs>
  <g id="Layer_2-2" data-name="Layer 2">
    <g id="Layer_1-2" data-name="Layer 1-2">
      <g>
        <path class="cls-1" d="M56.11,227.83c-.74-.44-1.42-1.01-2.53-1.81,1.27-.39,2.1-.65,2.94-.89,18.82-5.34,27.55-27.01,16.85-43.37-7.85-12-16.78-23.28-25.26-34.86-13.48-18.39-27.12-36.68-40.48-55.17-.84-1.16-1.67-2.31-2.51-3.47-1.32-1.83-2.58-3.68-3.79-5.56-1.21-3.9-1.14-8.23.51-12.3,3.78-9.35,14.43-13.88,23.8-10.09,1.59.64,3.03,1.48,4.32,2.48.26.37.53.75.8,1.12,1.71,2.32,3.43,4.64,5.15,6.96,19.06,25.73,38.26,51.37,57.34,77.09,5.06,6.83,10.08,13.7,14.76,20.79,6.63,10.02,9.81,20.85,7.2,33.04-5.6,26.2-36.04,39.68-59.1,26.03h0Z"/>
        <path class="cls-1" d="M159.12,162.27c-3.7,9.14-14.1,13.55-23.24,9.85-2.44-.99-4.54-2.45-6.24-4.24-.87-1.18-1.75-2.36-2.62-3.54-19.81-26.76-39.8-53.38-59.56-80.17-5.92-8.03-11.92-16.12-16.74-24.82-8.17-14.76-6.88-29.61,3.22-43.05C63.9,3.02,77.72-1.71,93.89,1.43c4.82.94,9.31,3.61,13.95,5.49-.05.3-.1.61-.14.91-8.21,1.91-14.93,6.02-19.31,13.3-6.2,10.29-6.47,20.99.13,30.93,7.81,11.75,16.53,22.91,24.89,34.3,13.66,18.61,27.46,37.15,40.99,55.85.54.74,1.07,1.48,1.61,2.22,1.06,1.47,2.1,2.96,3.11,4.47,1.67,4.14,1.8,8.9,0,13.37h0Z"/>
      </g>
    </g>
  </g>
</svg>