<?xml version="1.0" encoding="UTF-8"?>
<svg id="Layer_2" xmlns="http://www.w3.org/2000/svg" version="1.1" viewBox="0 0 623.8 397.9">
  <!-- Generator: Adobe Illustrator 29.8.2, SVG Export Plug-In . SVG Version: 2.1.1 Build 3)  -->
  <defs>
    <style>
      .st0 {
        fill: #19171b;
        stroke: #000;
        stroke-miterlimit: 10;
      }
    </style>
  </defs>
  <g id="Layer_1-2">
    <g>
      <path class="st0" d="M287.5,227.3c-.7-.4-1.4-1-2.5-1.8,1.3-.4,2.1-.6,2.9-.9,18.8-5.3,27.5-27,16.9-43.4-7.9-12-16.8-23.3-25.3-34.9-13.5-18.4-27.1-36.7-40.5-55.2-.8-1.2-1.7-2.3-2.5-3.5-1.3-1.8-2.6-3.7-3.8-5.6-1.2-3.9-1.1-8.2.5-12.3,3.8-9.3,14.4-13.9,23.8-10.1,1.6.6,3,1.5,4.3,2.5.3.4.5.8.8,1.1,1.7,2.3,3.4,4.6,5.1,7,19.1,25.7,38.3,51.4,57.3,77.1,5.1,6.8,10.1,13.7,14.8,20.8,6.6,10,9.8,20.9,7.2,33-5.6,26.2-36,39.7-59.1,26h0Z"/>
      <path class="st0" d="M390.5,161.8c-3.7,9.1-14.1,13.6-23.2,9.9-2.4-1-4.5-2.4-6.2-4.2-.9-1.2-1.8-2.4-2.6-3.5-19.8-26.8-39.8-53.4-59.6-80.2-5.9-8-11.9-16.1-16.7-24.8-8.2-14.8-6.9-29.6,3.2-43,10-13.3,23.8-18,40-14.9,4.8.9,9.3,3.6,14,5.5,0,.3-.1.6-.1.9-8.2,1.9-14.9,6-19.3,13.3-6.2,10.3-6.5,21,.1,30.9,7.8,11.8,16.5,22.9,24.9,34.3,13.7,18.6,27.5,37.2,41,55.9.5.7,1.1,1.5,1.6,2.2,1.1,1.5,2.1,3,3.1,4.5,1.7,4.1,1.8,8.9,0,13.4h0Z"/>
    </g>
    <g>
      <path class="st0" d="M75.4,347.4c-2.4-4.1-6-7.8-10.8-10.8-5.2-3.4-11.7-6.7-19.3-9.8-7-2.9-12.9-5.7-17.6-8.2-5.2-2.8-9.2-6.1-11.9-9.8-2.9-4-4.3-8.8-4.3-14.4s1.3-9.5,3.8-13.3c2.5-3.8,6.2-6.7,10.8-8.8,4.3-1.9,9.5-2.8,15.4-2.8s12.6.8,18.7,2.4h.2c5,1.3,10.2-.2,13.6-3.8-3.9-1.5-7.9-2.6-11.8-3.6-6.2-1.5-12.9-2.2-19.9-2.2s-16.2,1.4-22.5,4.1c-6,2.6-10.6,6.2-13.8,11-3.2,4.7-4.8,10.4-4.8,17.3s.8,9.7,2.4,13.4c1.6,3.7,3.8,7,6.6,9.7,2.9,2.9,6.4,5.4,10.2,7.6,4.1,2.3,8.4,4.4,12.8,6.1,7.2,2.9,13.3,5.7,18.1,8.2,5.5,2.9,9.7,6.2,12.5,9.9,3.2,4.1,4.8,9.2,4.8,14.9s-1.3,10-4,14.1c-2.7,4.1-6.8,7.3-12.1,9.4-4.8,1.9-10.8,2.9-17.7,2.9s-16.1-1.1-23.9-3.4h-.2c-2.7-.8-5.5-.3-7.7,1.4-1.3,1-2.3,2.3-2.9,3.7,2,.7,4,1.4,6.2,2,4,1.1,8.2,1.9,12.7,2.5,4.6.5,9.4.8,14.3.8,9.9,0,18.4-1.5,25.4-4.4,6.7-2.8,11.6-6.7,15.2-11.9,3.5-5.1,5.2-11.2,5.2-18.5s-1.2-11.6-3.6-15.6h0Z"/>
      <path class="st0" d="M231,293.3c-4.4-9.9-11.1-17.6-19.9-23-8.4-5.1-22.1-8.2-36.8-8.2s-29,3.1-37.4,8.3c-9,5.5-15.5,13-19.9,23-4.5,10.2-6.8,22.5-6.8,36.4s1.3,20,3.9,28.6c2.5,8.3,6.3,15.5,11.2,21.3,4.9,5.8,11.2,10.3,18.6,13.5,7.1,3,18.6,4.8,30.2,4.8s22.8-1.9,29.8-4.8c7.5-3.2,13.8-7.7,18.6-13.4,5-5.8,8.8-13,11.3-21.2,2.6-8.5,3.9-18.1,3.9-28.5s-2.3-26.4-6.9-36.6h0ZM221.1,361.1c-3.4,9.4-8.9,16.8-16.2,21.9-6.9,4.9-18.4,7.8-30.8,7.8s-23.8-2.9-30.7-7.7c-7.4-5.1-12.9-12.5-16.4-21.9-3.3-8.9-5-19.4-5-31.2s1.7-22.5,5-31.3c3.5-9.3,9-16.6,16.5-21.7,7-4.8,18.5-7.7,30.8-7.7,17.9,0,32.6,6.2,40.3,17.1,7.5,10.7,11.3,25.3,11.3,43.5s-1.6,22.3-4.8,31.1h0Z"/>
      <path class="st0" d="M378.3,385.9l-29.4-39.1c-1.7-2.7-2.2-5.9-1.4-8.9.8-3.1,2.9-5.7,5.8-7.2,1.1-.6,2.3-1.1,3.6-1.8,2.4-1.1,5.3-2.5,6.7-3.5,3.5-2.7,6.4-6.2,8.6-10.3,2.1-4,3.2-9.1,3.2-15.2s-1.7-15-4.9-20.1c-3.2-5-8.1-8.7-15-11.3-7.4-2.8-17-4.1-28.6-4.1h-47.7v121c0,5.8,4.7,10.6,10.6,10.6h.2v-124.8h35.4c12.5,0,21.7,2.1,28.1,6.3,5,3.3,10.9,10,10.9,23.2s-3.3,17.8-9.8,23.1c-1.5,1.3-3.3,2.4-5.2,3.3-6.5,3.2-10.5,9.4-10.5,16.2v.8c4.3,12.1,24,39.7,32.9,51.6,2.9-.6,5.5-2.3,6.7-4.6,1-1.7.9-3.4-.2-5.2h0Z"/>
      <path class="st0" d="M515.6,381l-41-110.8c-1.4-3.9-5.1-6.4-9.2-6.4h-3.6c-4.1,0-7.8,2.6-9.2,6.4l-41.1,111c-1.3,3.4-.8,7,1.3,10,1.2,1.7,2.8,3,4.7,3.8l13.8-39.3h.1l5-16,13.8-39.4c.5-1.6,1.1-3.8,2-6.6.8-2.7,1.7-5.8,2.7-9.3l.2-.9c1.1-3.8,4.5-6.4,8.5-6.5h0c4,0,7.4,2.5,8.5,6.3h0c1,3.3,2,6.5,2.9,9.6,1,3.1,1.7,5.5,2.2,7.2l13.8,39.8,4.5,15.7,13.9,39.3c1.9-.8,3.6-2.1,4.8-3.9,2.1-3,2.6-6.7,1.3-10.2h0Z"/>
      <path class="st0" d="M566.8,388.8v-58.4h51c1.9,0,3.4-1.5,3.4-3.4s-1.5-3.4-3.4-3.4h-51v-52.3h45.9c4.9,0,9.1-2.9,11.1-7h-58.5c-5,0-9.2,4.1-9.2,9.2v113.3c0,5,4.1,9.2,9.2,9.2h47.5c4.9,0,9.2-2.9,11.1-7.1h-57Z"/>
    </g>
  </g>
</svg>